<svg version="1.0" xmlns="http://www.w3.org/2000/svg" width="16" height="16" viewBox="0 0 1024 1024"><path d="M497.5.7c-73.8 2.2-142.7 19-208 50.7-53.5 26-96.7 56.8-139 99.1-53.4 53.4-91.9 113.1-118.1 183.3-42 112.6-42.5 240.1-1.2 353.2 38.5 105.6 111.4 196.2 206.7 256.9 130.1 82.9 290.9 102.1 438.6 52.6 95.7-32.1 183.1-95.6 244.5-177.4 32.7-43.6 59.4-94.3 76.3-145.1 47.1-141.7 30-297.8-46.7-425.5-85.2-141.7-236.2-235-399.1-246.4C535.1.9 510.3.3 497.5.7zm23.1 292.4c143.5 38 267.8 70.8 276.3 73 8.4 2.1 17.3 5 19.6 6.3 5 3 9.6 8 12.7 13.9l2.3 4.2.3 167.7.2 167.7-2.1 5.5c-2.5 6.8-9.4 14.2-16.4 17.6l-5 2.5-295.2.3-295.2.2-5.6-2.1c-7.7-2.8-15.6-10.8-18.4-18.4l-2.1-5.6.2-167.7.3-167.7 2.7-5.1c3-5.7 8.7-11.2 15-14.6l4.3-2.3 229.8-.5 229.7-.5-211.2-55.9C346.6 280.9 249.9 255 248 254.1c-5.3-2.7-8.2-8.3-7.7-15.2.5-9.2 6.3-14.8 15.3-14.9 2.4 0 116.7 29.8 265 69.1z"/><path d="M372 432.6c-1.4.2-5.9.9-10 1.5s-12 2.6-17.6 4.4c-20.2 6.6-34.7 15.7-50.5 31.4-18.9 18.9-29.9 39.3-35.6 66.1-2.3 11.3-2.3 36.1 0 47.5 11 53 50 91.9 102.5 102.2 11.7 2.3 34.7 2.3 46.4 0 26.4-5.2 47.7-16.6 66.9-35.7 19-18.9 30.4-40.3 35.6-66.8 2.3-12.2 2.3-35.9 0-47.2-5.6-26.5-17.4-48.4-35.9-66.7-18.3-18-40.6-29.9-65.2-34.9-7.1-1.4-31.9-2.7-36.6-1.8zM578 640.9c-11.2 3.6-17.4 11.9-17.4 23.1 0 13.7 9.6 23.4 23.4 23.4 13.8 0 23.4-9.7 23.4-23.4 0-9.5-4.4-16.9-12.8-21.2-4.3-2.2-12.8-3.2-16.6-1.9zM658 640.9c-11.2 3.6-17.4 11.9-17.4 23.1 0 13.7 9.6 23.4 23.4 23.4 13.8 0 23.4-9.7 23.4-23.4 0-9.5-4.4-16.9-12.8-21.2-4.3-2.2-12.8-3.2-16.6-1.9zM738 640.9c-11.2 3.6-17.4 11.9-17.4 23.1 0 13.7 9.6 23.4 23.4 23.4 13.8 0 23.4-9.7 23.4-23.4 0-9.5-4.4-16.9-12.8-21.2-4.3-2.2-12.8-3.2-16.6-1.9z"/></svg>
