<?xml version="1.0" encoding="UTF-8"?>
<svg xmlns="http://www.w3.org/2000/svg" xmlns:xlink="http://www.w3.org/1999/xlink" width="60" height="60" viewBox="0 0 60 60">
<defs>
<linearGradient id="linear-pattern-0" gradientUnits="userSpaceOnUse" x1="0" y1="0" x2="0" y2="1" gradientTransform="matrix(60, 0, 0, 60, 0, 0)">
<stop offset="0" stop-color="rgb(35.686275%, 83.921569%, 56.078431%)" stop-opacity="1"/>
<stop offset="1" stop-color="rgb(18.431373%, 52.156863%, 35.294118%)" stop-opacity="1"/>
</linearGradient>
</defs>
<path fill-rule="nonzero" fill="url(#linear-pattern-0)" d="M 11.71875 0 L 48.28125 0 C 54.753906 0 60 5.246094 60 11.71875 L 60 48.28125 C 60 54.753906 54.753906 60 48.28125 60 L 11.71875 60 C 5.246094 60 0 54.753906 0 48.28125 L 0 11.71875 C 0 5.246094 5.246094 0 11.71875 0 Z M 11.71875 0 "/>
<path fill="none" stroke-width="36" stroke-linecap="round" stroke-linejoin="miter" stroke="rgb(100%, 100%, 100%)" stroke-opacity="1" stroke-miterlimit="4" d="M 145 365 C 145 323.566667 178.566667 290 220 290 " transform="matrix(0.117188, 0, 0, 0.117188, 0, 0)"/>
<path fill="none" stroke-width="36" stroke-linecap="round" stroke-linejoin="miter" stroke="rgb(100%, 100%, 100%)" stroke-opacity="1" stroke-miterlimit="4" d="M 145 365 C 145 282.166667 212.166667 215 295 215 " transform="matrix(0.117188, 0, 0, 0.117188, 0, 0)"/>
<path fill="none" stroke-width="36" stroke-linecap="round" stroke-linejoin="miter" stroke="rgb(100%, 100%, 100%)" stroke-opacity="1" stroke-miterlimit="4" d="M 145 365 C 145 240.733333 245.733333 140 370 140 " transform="matrix(0.117188, 0, 0, 0.117188, 0, 0)"/>
<path fill-rule="nonzero" fill="rgb(100%, 100%, 100%)" fill-opacity="1" d="M 20.742188 42.773438 C 20.742188 44.84375 19.0625 46.523438 16.992188 46.523438 C 14.921875 46.523438 13.242188 44.84375 13.242188 42.773438 C 13.242188 40.703125 14.921875 39.023438 16.992188 39.023438 C 19.0625 39.023438 20.742188 40.703125 20.742188 42.773438 Z M 20.742188 42.773438 "/>
</svg>
