<svg xmlns="http://www.w3.org/2000/svg" xmlns:xlink="http://www.w3.org/1999/xlink" viewBox="0 0 160 160" width="160" height="160"><rect width="160" height="160" fill="#1a1a2e"/><svg x="13.5" y="66.5" width="133" height="27" viewBox="0 0 133 27"><defs><clipPath id="b"><rect width="133" height="27"/></clipPath></defs><g id="a" clip-path="url(#b)"><g transform="translate(4 4.218)"><rect width="12.994" height="3.714" transform="translate(35.25 -0.904)" fill="#fff"/><rect width="18.709" height="3.712" transform="translate(35.25 13.791)" fill="#fff"/><rect width="3.712" height="18.409" transform="translate(25.79 -0.904)" fill="#fff"/><path d="M1272.54,2447.792h11.525v14.6h3.714V2443.99H1272.54Z" transform="translate(-1217.133 -2444.895)" fill="#fff"/><path d="M1098.226,2447.091h1.722v9.39c0,2.777-1.291,3-3.153,2.794-.147-.016-.3-.032-.438-.043l-.406-.034v3.182l.3.061a10,10,0,0,0,2.088.214c3.421,0,5.38-2.035,5.38-5.589v-9.988h4.45v-3.1h-9.949Z" transform="translate(-1095.95 -2444.896)" fill="#fff"/><rect width="3.809" height="9.357" transform="translate(15.888 8.147)" fill="#fff"/><path d="M1337.154,2447.108h1.72v9.4c0,2.775-1.292,3-3.153,2.795-.147-.017-.294-.032-.438-.044l-.407-.033v3.182l.3.06a10.047,10.047,0,0,0,2.089.215c3.42,0,5.381-2.035,5.381-5.589V2447.1h4.448v-3.117h-9.949Z" transform="translate(-1259.909 -2444.896)" fill="#fff"/><rect width="3.809" height="9.357" transform="translate(90.857 8.147)" fill="#fff"/><path d="M1418.325,2455.8h-2.276v-10.52h2.276Zm8.527-1.07-4.2-4.2,4.193-4.192-1.641-1.641-5.833,5.833,5.844,5.844Zm10.793-4.205a5.251,5.251,0,0,0-5.244-5.246h-2.54v2.277h2.54a2.983,2.983,0,0,1,0,5.959h-2.54v2.277h2.54a5.267,5.267,0,0,0,5.244-5.262Zm-25.733-7h-2.277v15.757h2.277Z" transform="translate(-1311.301 -2446.459)" fill="#fff"/></g></g></svg></svg>